<svg xmlns="http://www.w3.org/2000/svg" width="24" height="24" viewBox="0 0 24 24" fill="none" stroke="currentColor" stroke-width="2" stroke-linecap="round" stroke-linejoin="round">
  <!-- Document icon -->
  <path d="M14 2H6a2 2 0 0 0-2 2v16a2 2 0 0 0 2 2h12a2 2 0 0 0 2-2V8z"/>
  <polyline points="14,2 14,8 20,8"/>
  
  <!-- Question mark -->
  <circle cx="12" cy="16" r="1"/>
  <path d="M12 13c0-1.1.9-2 2-2s2 .9 2 2c0 .7-.4 1.3-1 1.6L12 15"/>
  
  <!-- Search magnifying glass -->
  <circle cx="8" cy="11" r="2"/>
  <path d="m10.5 13.5 1.5 1.5"/>
</svg>